<svg version="1.1" viewBox="0.0 0.0 1100.0 681.0" fill="none" stroke="none" stroke-linecap="square" stroke-miterlimit="10" width="1100" height="681" xmlns:xlink="http://www.w3.org/1999/xlink" xmlns="http://www.w3.org/2000/svg"><path fill="#ffffff" d="M0 0L1100.0 0L1100.0 681.0L0 681.0L0 0Z" fill-rule="nonzero"/><path stroke="#333333" stroke-width="1.0" stroke-linecap="butt" d="M68.5 626.5L1065.5 626.5" fill-rule="nonzero"/><path stroke="#cccccc" stroke-width="1.0" stroke-linecap="butt" d="M68.5 459.5L1065.5 459.5" fill-rule="nonzero"/><path stroke="#cccccc" stroke-width="1.0" stroke-linecap="butt" d="M68.5 291.5L1065.5 291.5" fill-rule="nonzero"/><path stroke="#cccccc" stroke-width="1.0" stroke-linecap="butt" d="M68.5 124.5L1065.5 124.5" fill-rule="nonzero"/><clipPath id="id_0"><path d="M68.05 124.45L1065.95 124.45L1065.95 626.95L68.05 626.95L68.05 124.45Z" clip-rule="nonzero"/></clipPath><path stroke="#000000" stroke-width="2.0" stroke-linecap="butt" stroke-opacity="0.0" clip-path="url(#id_0)" d="M285.0 627.0L218.0 627.0L218.0 530.0C218.0 528.89545 218.89543 528.0 220.0 528.0L283.0 528.0C284.10458 528.0 285.0 528.89545 285.0 530.0Z" fill-rule="nonzero"/><path fill="#4285f4" clip-path="url(#id_0)" d="M285.0 627.0L218.0 627.0L218.0 530.0C218.0 528.89545 218.89543 528.0 220.0 528.0L283.0 528.0C284.10458 528.0 285.0 528.89545 285.0 530.0Z" fill-rule="nonzero"/><path stroke="#000000" stroke-width="2.0" stroke-linecap="butt" stroke-opacity="0.0" clip-path="url(#id_0)" d="M709.0 627.0L642.0 627.0L642.0 563.0C642.0 561.89545 642.89545 561.0 644.0 561.0L707.0 561.0C708.10455 561.0 709.0 561.89545 709.0 563.0Z" fill-rule="nonzero"/><path fill="#4285f4" clip-path="url(#id_0)" d="M709.0 627.0L642.0 627.0L642.0 563.0C642.0 561.89545 642.89545 561.0 644.0 561.0L707.0 561.0C708.10455 561.0 709.0 561.89545 709.0 563.0Z" fill-rule="nonzero"/><path stroke="#000000" stroke-width="2.0" stroke-linecap="butt" stroke-opacity="0.0" clip-path="url(#id_0)" d="M354.0 627.0L287.0 627.0L287.0 474.0C287.0 472.89542 287.89542 472.0 289.0 472.0L352.0 472.0C353.10458 472.0 354.0 472.89542 354.0 474.0Z" fill-rule="nonzero"/><path fill="#ea4335" clip-path="url(#id_0)" d="M354.0 627.0L287.0 627.0L287.0 474.0C287.0 472.89542 287.89542 472.0 289.0 472.0L352.0 472.0C353.10458 472.0 354.0 472.89542 354.0 474.0Z" fill-rule="nonzero"/><path stroke="#000000" stroke-width="2.0" stroke-linecap="butt" stroke-opacity="0.0" clip-path="url(#id_0)" d="M778.0 627.0L711.0 627.0L711.0 538.0C711.0 536.89545 711.89545 536.0 713.0 536.0L776.0 536.0C777.10455 536.0 778.0 536.89545 778.0 538.0Z" fill-rule="nonzero"/><path fill="#ea4335" clip-path="url(#id_0)" d="M778.0 627.0L711.0 627.0L711.0 538.0C711.0 536.89545 711.89545 536.0 713.0 536.0L776.0 536.0C777.10455 536.0 778.0 536.89545 778.0 538.0Z" fill-rule="nonzero"/><path stroke="#000000" stroke-width="2.0" stroke-linecap="butt" stroke-opacity="0.0" clip-path="url(#id_0)" d="M423.0 627.0L356.0 627.0L356.0 436.0C356.0 434.89542 356.89542 434.0 358.0 434.0L421.0 434.0C422.10458 434.0 423.0 434.89542 423.0 436.0Z" fill-rule="nonzero"/><path fill="#fbbc04" clip-path="url(#id_0)" d="M423.0 627.0L356.0 627.0L356.0 436.0C356.0 434.89542 356.89542 434.0 358.0 434.0L421.0 434.0C422.10458 434.0 423.0 434.89542 423.0 436.0Z" fill-rule="nonzero"/><path stroke="#000000" stroke-width="2.0" stroke-linecap="butt" stroke-opacity="0.0" clip-path="url(#id_0)" d="M847.0 627.0L780.0 627.0L780.0 483.0C780.0 481.89542 780.89545 481.0 782.0 481.0L845.0 481.0C846.10455 481.0 847.0 481.89542 847.0 483.0Z" fill-rule="nonzero"/><path fill="#fbbc04" clip-path="url(#id_0)" d="M847.0 627.0L780.0 627.0L780.0 483.0C780.0 481.89542 780.89545 481.0 782.0 481.0L845.0 481.0C846.10455 481.0 847.0 481.89542 847.0 483.0Z" fill-rule="nonzero"/><path stroke="#000000" stroke-width="2.0" stroke-linecap="butt" stroke-opacity="0.0" clip-path="url(#id_0)" d="M492.0 627.0L425.0 627.0L425.0 148.0C425.0 146.89543 425.89542 146.0 427.0 146.0L490.0 146.0C491.10458 146.0 492.0 146.89543 492.0 148.0Z" fill-rule="nonzero"/><path fill="#34a853" clip-path="url(#id_0)" d="M492.0 627.0L425.0 627.0L425.0 148.0C425.0 146.89543 425.89542 146.0 427.0 146.0L490.0 146.0C491.10458 146.0 492.0 146.89543 492.0 148.0Z" fill-rule="nonzero"/><path stroke="#000000" stroke-width="2.0" stroke-linecap="butt" stroke-opacity="0.0" clip-path="url(#id_0)" d="M916.0 627.0L849.0 627.0L849.0 371.0C849.0 369.89542 849.89545 369.0 851.0 369.0L914.0 369.0C915.10455 369.0 916.0 369.89542 916.0 371.0Z" fill-rule="nonzero"/><path fill="#34a853" clip-path="url(#id_0)" d="M916.0 627.0L849.0 627.0L849.0 371.0C849.0 369.89542 849.89545 369.0 851.0 369.0L914.0 369.0C915.10455 369.0 916.0 369.89542 916.0 371.0Z" fill-rule="nonzero"/><path fill="#000000" d="M55.55 626.71564Q55.55 625.1844 55.8625 624.2625Q56.175 623.325 56.784374 622.825Q57.409374 622.325 58.346874 622.325Q59.034374 622.325 59.55 622.60626Q60.08125 622.8875 60.425 623.41876Q60.76875 623.9344 60.95625 624.6844Q61.14375 625.4344 61.14375 626.71564Q61.14375 628.23126 60.83125 629.15314Q60.534374 630.075 59.909374 630.59064Q59.3 631.09064 58.346874 631.09064Q57.1125 631.09064 56.39375 630.2Q55.55 629.1375 55.55 626.71564ZM56.628124 626.71564Q56.628124 628.825 57.128124 629.52814Q57.628124 630.23126 58.346874 630.23126Q59.08125 630.23126 59.565624 629.52814Q60.065624 628.825 60.065624 626.71564Q60.065624 624.59064 59.565624 623.90314Q59.08125 623.2 58.33125 623.2Q57.6125 623.2 57.175 623.8094Q56.628124 624.59064 56.628124 626.71564Z" fill-rule="nonzero"/><path fill="#000000" d="M38.51875 463.45L37.471874 463.45L37.471874 456.73126Q37.08125 457.09064 36.45625 457.46564Q35.846874 457.825 35.3625 457.9969L35.3625 456.98126Q36.2375 456.5594 36.89375 455.98126Q37.565624 455.3875 37.846874 454.825L38.51875 454.825L38.51875 463.45ZM41.55 459.21564Q41.55 457.6844 41.8625 456.7625Q42.175 455.825 42.784374 455.325Q43.409374 454.825 44.346874 454.825Q45.034374 454.825 45.55 455.10626Q46.08125 455.3875 46.425 455.91876Q46.76875 456.4344 46.95625 457.1844Q47.14375 457.9344 47.14375 459.21564Q47.14375 460.73126 46.83125 461.65314Q46.534374 462.575 45.909374 463.09064Q45.3 463.59064 44.346874 463.59064Q43.1125 463.59064 42.39375 462.7Q41.55 461.6375 41.55 459.21564ZM42.628124 459.21564Q42.628124 461.325 43.128124 462.02814Q43.628124 462.73126 44.346874 462.73126Q45.08125 462.73126 45.565624 462.02814Q46.065624 461.325 46.065624 459.21564Q46.065624 457.09064 45.565624 456.40314Q45.08125 455.7 44.33125 455.7Q43.6125 455.7 43.175 456.3094Q42.628124 457.09064 42.628124 459.21564ZM48.55 459.21564Q48.55 457.6844 48.8625 456.7625Q49.175 455.825 49.784374 455.325Q50.409374 454.825 51.346874 454.825Q52.034374 454.825 52.55 455.10626Q53.08125 455.3875 53.425 455.91876Q53.76875 456.4344 53.95625 457.1844Q54.14375 457.9344 54.14375 459.21564Q54.14375 460.73126 53.83125 461.65314Q53.534374 462.575 52.909374 463.09064Q52.3 463.59064 51.346874 463.59064Q50.1125 463.59064 49.39375 462.7Q48.55 461.6375 48.55 459.21564ZM49.628124 459.21564Q49.628124 461.325 50.128124 462.02814Q50.628124 462.73126 51.346874 462.73126Q52.08125 462.73126 52.565624 462.02814Q53.065624 461.325 53.065624 459.21564Q53.065624 457.09064 52.565624 456.40314Q52.08125 455.7 51.33125 455.7Q50.6125 455.7 50.175 456.3094Q49.628124 457.09064 49.628124 459.21564ZM55.55 459.21564Q55.55 457.6844 55.8625 456.7625Q56.175 455.825 56.784374 455.325Q57.409374 454.825 58.346874 454.825Q59.034374 454.825 59.55 455.10626Q60.08125 455.3875 60.425 455.91876Q60.76875 456.4344 60.95625 457.1844Q61.14375 457.9344 61.14375 459.21564Q61.14375 460.73126 60.83125 461.65314Q60.534374 462.575 59.909374 463.09064Q59.3 463.59064 58.346874 463.59064Q57.1125 463.59064 56.39375 462.7Q55.55 461.6375 55.55 459.21564ZM56.628124 459.21564Q56.628124 461.325 57.128124 462.02814Q57.628124 462.73126 58.346874 462.73126Q59.08125 462.73126 59.565624 462.02814Q60.065624 461.325 60.065624 459.21564Q60.065624 457.09064 59.565624 456.40314Q59.08125 455.7 58.33125 455.7Q57.6125 455.7 57.175 456.3094Q56.628124 457.09064 56.628124 459.21564Z" fill-rule="nonzero"/><path fill="#000000" d="M40.096874 294.9344L40.096874 295.95L34.409374 295.95Q34.409374 295.575 34.534374 295.21564Q34.753124 294.6375 35.221874 294.075Q35.70625 293.5125 36.6125 292.77814Q38.01875 291.6219 38.503124 290.95Q39.003124 290.27814 39.003124 289.6844Q39.003124 289.0594 38.55 288.6375Q38.096874 288.2 37.378124 288.2Q36.6125 288.2 36.159374 288.65314Q35.70625 289.10626 35.690624 289.91876L34.6125 289.8094Q34.721874 288.59064 35.440624 287.96564Q36.175 287.325 37.409374 287.325Q38.64375 287.325 39.3625 288.0125Q40.08125 288.7 40.08125 289.71564Q40.08125 290.23126 39.8625 290.73126Q39.659374 291.21564 39.159374 291.77814Q38.675 292.325 37.55 293.27814Q36.596874 294.075 36.315624 294.3719Q36.05 294.65314 35.878124 294.9344L40.096874 294.9344ZM41.55 291.71564Q41.55 290.1844 41.8625 289.2625Q42.175 288.325 42.784374 287.825Q43.409374 287.325 44.346874 287.325Q45.034374 287.325 45.55 287.60626Q46.08125 287.8875 46.425 288.41876Q46.76875 288.9344 46.95625 289.6844Q47.14375 290.4344 47.14375 291.71564Q47.14375 293.23126 46.83125 294.15314Q46.534374 295.075 45.909374 295.59064Q45.3 296.09064 44.346874 296.09064Q43.1125 296.09064 42.39375 295.2Q41.55 294.1375 41.55 291.71564ZM42.628124 291.71564Q42.628124 293.825 43.128124 294.52814Q43.628124 295.23126 44.346874 295.23126Q45.08125 295.23126 45.565624 294.52814Q46.065624 293.825 46.065624 291.71564Q46.065624 289.59064 45.565624 288.90314Q45.08125 288.2 44.33125 288.2Q43.6125 288.2 43.175 288.8094Q42.628124 289.59064 42.628124 291.71564ZM48.55 291.71564Q48.55 290.1844 48.8625 289.2625Q49.175 288.325 49.784374 287.825Q50.409374 287.325 51.346874 287.325Q52.034374 287.325 52.55 287.60626Q53.08125 287.8875 53.425 288.41876Q53.76875 288.9344 53.95625 289.6844Q54.14375 290.4344 54.14375 291.71564Q54.14375 293.23126 53.83125 294.15314Q53.534374 295.075 52.909374 295.59064Q52.3 296.09064 51.346874 296.09064Q50.1125 296.09064 49.39375 295.2Q48.55 294.1375 48.55 291.71564ZM49.628124 291.71564Q49.628124 293.825 50.128124 294.52814Q50.628124 295.23126 51.346874 295.23126Q52.08125 295.23126 52.565624 294.52814Q53.065624 293.825 53.065624 291.71564Q53.065624 289.59064 52.565624 288.90314Q52.08125 288.2 51.33125 288.2Q50.6125 288.2 50.175 288.8094Q49.628124 289.59064 49.628124 291.71564ZM55.55 291.71564Q55.55 290.1844 55.8625 289.2625Q56.175 288.325 56.784374 287.825Q57.409374 287.325 58.346874 287.325Q59.034374 287.325 59.55 287.60626Q60.08125 287.8875 60.425 288.41876Q60.76875 288.9344 60.95625 289.6844Q61.14375 290.4344 61.14375 291.71564Q61.14375 293.23126 60.83125 294.15314Q60.534374 295.075 59.909374 295.59064Q59.3 296.09064 58.346874 296.09064Q57.1125 296.09064 56.39375 295.2Q55.55 294.1375 55.55 291.71564ZM56.628124 291.71564Q56.628124 293.825 57.128124 294.52814Q57.628124 295.23126 58.346874 295.23126Q59.08125 295.23126 59.565624 294.52814Q60.065624 293.825 60.065624 291.71564Q60.065624 289.59064 59.565624 288.90314Q59.08125 288.2 58.33125 288.2Q57.6125 288.2 57.175 288.8094Q56.628124 289.59064 56.628124 291.71564Z" fill-rule="nonzero"/><path fill="#000000" d="M34.55 126.18437L35.6125 126.04375Q35.784374 126.93437 36.221874 127.34062Q36.659374 127.73125 37.284374 127.73125Q38.034374 127.73125 38.55 127.21562Q39.065624 126.7 39.065624 125.93437Q39.065624 125.21562 38.58125 124.74687Q38.1125 124.2625 37.378124 124.2625Q37.08125 124.2625 36.628124 124.3875L36.753124 123.45Q36.8625 123.46562 36.925 123.46562Q37.596874 123.46562 38.128124 123.12187Q38.675 122.7625 38.675 122.02812Q38.675 121.45 38.284374 121.075Q37.89375 120.68437 37.26875 120.68437Q36.659374 120.68437 36.2375 121.075Q35.83125 121.46562 35.721874 122.23125L34.659374 122.04375Q34.846874 120.99687 35.534374 120.41875Q36.221874 119.825 37.2375 119.825Q37.940624 119.825 38.534374 120.1375Q39.128124 120.43437 39.440624 120.95Q39.753124 121.46562 39.753124 122.05937Q39.753124 122.60625 39.45625 123.075Q39.159374 123.52812 38.58125 123.79375Q39.33125 123.96562 39.753124 124.52812Q40.175 125.075 40.175 125.91875Q40.175 127.04375 39.346874 127.825Q38.534374 128.60625 37.284374 128.60625Q36.159374 128.60625 35.409374 127.93437Q34.659374 127.24687 34.55 126.18437ZM41.55 124.21562Q41.55 122.68437 41.8625 121.7625Q42.175 120.825 42.784374 120.325Q43.409374 119.825 44.346874 119.825Q45.034374 119.825 45.55 120.10625Q46.08125 120.3875 46.425 120.91875Q46.76875 121.43437 46.95625 122.18437Q47.14375 122.93437 47.14375 124.21562Q47.14375 125.73125 46.83125 126.65312Q46.534374 127.575 45.909374 128.09062Q45.3 128.59062 44.346874 128.59062Q43.1125 128.59062 42.39375 127.7Q41.55 126.6375 41.55 124.21562ZM42.628124 124.21562Q42.628124 126.325 43.128124 127.02812Q43.628124 127.73125 44.346874 127.73125Q45.08125 127.73125 45.565624 127.02812Q46.065624 126.325 46.065624 124.21562Q46.065624 122.09062 45.565624 121.40312Q45.08125 120.7 44.33125 120.7Q43.6125 120.7 43.175 121.30937Q42.628124 122.09062 42.628124 124.21562ZM48.55 124.21562Q48.55 122.68437 48.8625 121.7625Q49.175 120.825 49.784374 120.325Q50.409374 119.825 51.346874 119.825Q52.034374 119.825 52.55 120.10625Q53.08125 120.3875 53.425 120.91875Q53.76875 121.43437 53.95625 122.18437Q54.14375 122.93437 54.14375 124.21562Q54.14375 125.73125 53.83125 126.65312Q53.534374 127.575 52.909374 128.09062Q52.3 128.59062 51.346874 128.59062Q50.1125 128.59062 49.39375 127.7Q48.55 126.6375 48.55 124.21562ZM49.628124 124.21562Q49.628124 126.325 50.128124 127.02812Q50.628124 127.73125 51.346874 127.73125Q52.08125 127.73125 52.565624 127.02812Q53.065624 126.325 53.065624 124.21562Q53.065624 122.09062 52.565624 121.40312Q52.08125 120.7 51.33125 120.7Q50.6125 120.7 50.175 121.30937Q49.628124 122.09062 49.628124 124.21562ZM55.55 124.21562Q55.55 122.68437 55.8625 121.7625Q56.175 120.825 56.784374 120.325Q57.409374 119.825 58.346874 119.825Q59.034374 119.825 59.55 120.10625Q60.08125 120.3875 60.425 120.91875Q60.76875 121.43437 60.95625 122.18437Q61.14375 122.93437 61.14375 124.21562Q61.14375 125.73125 60.83125 126.65312Q60.534374 127.575 59.909374 128.09062Q59.3 128.59062 58.346874 128.59062Q57.1125 128.59062 56.39375 127.7Q55.55 126.6375 55.55 124.21562ZM56.628124 124.21562Q56.628124 126.325 57.128124 127.02812Q57.628124 127.73125 58.346874 127.73125Q59.08125 127.73125 59.565624 127.02812Q60.065624 126.325 60.065624 124.21562Q60.065624 122.09062 59.565624 121.40312Q59.08125 120.7 58.33125 120.7Q57.6125 120.7 57.175 121.30937Q56.628124 122.09062 56.628124 124.21562Z" fill-rule="nonzero"/><path fill="#000000" d="M339.10272 643.95L339.10272 635.35626L342.35272 635.35626Q343.19647 635.35626 343.6496 635.4344Q344.29022 635.54376 344.7121 635.84064Q345.1496 636.1375 345.3996 636.66876Q345.66522 637.2 345.66522 637.84064Q345.66522 638.9344 344.9621 639.7Q344.2746 640.45 342.44647 640.45L340.24335 640.45L340.24335 643.95L339.10272 643.95ZM340.24335 639.45L342.4621 639.45Q343.57147 639.45 344.0246 639.04376Q344.49335 638.6219 344.49335 637.8719Q344.49335 637.34064 344.2121 636.96564Q343.94647 636.575 343.50897 636.45Q343.2121 636.3719 342.44647 636.3719L340.24335 636.3719L340.24335 639.45ZM351.04022 643.1844Q350.44647 643.6844 349.8996 643.8875Q349.36835 644.09064 348.74335 644.09064Q347.7121 644.09064 347.16522 643.59064Q346.61835 643.09064 346.61835 642.3094Q346.61835 641.85626 346.82147 641.48126Q347.0246 641.09064 347.36835 640.8719Q347.7121 640.6375 348.13397 640.52814Q348.43085 640.4344 349.07147 640.35626Q350.3371 640.21564 350.94647 639.9969Q350.94647 639.77814 350.94647 639.73126Q350.94647 639.075 350.6496 638.8094Q350.24335 638.46564 349.44647 638.46564Q348.7121 638.46564 348.35272 638.73126Q347.99335 638.98126 347.82147 639.6375L346.79022 639.4969Q346.93085 638.84064 347.25897 638.4344Q347.5871 638.02814 348.19647 637.8094Q348.80585 637.59064 349.60272 637.59064Q350.3996 637.59064 350.8996 637.77814Q351.3996 637.96564 351.63397 638.2469Q351.86835 638.52814 351.9621 638.96564Q352.00897 639.23126 352.00897 639.9344L352.00897 641.34064Q352.00897 642.8094 352.07147 643.2Q352.1496 643.59064 352.35272 643.95L351.24335 643.95Q351.0871 643.6219 351.04022 643.1844ZM350.94647 640.825Q350.36835 641.0594 349.22772 641.23126Q348.57147 641.325 348.30585 641.45Q348.04022 641.5594 347.88397 641.77814Q347.74335 641.9969 347.74335 642.27814Q347.74335 642.7 348.05585 642.98126Q348.38397 643.2625 348.99335 643.2625Q349.60272 643.2625 350.07147 642.9969Q350.55585 642.73126 350.7746 642.2625Q350.94647 641.90314 350.94647 641.21564L350.94647 640.825ZM353.9621 643.95L353.9621 637.73126L354.91522 637.73126L354.91522 638.66876Q355.2746 638.0125 355.57147 637.8094Q355.88397 637.59064 356.25897 637.59064Q356.79022 637.59064 357.3371 637.91876L356.97772 638.90314Q356.5871 638.66876 356.2121 638.66876Q355.85272 638.66876 355.57147 638.8875Q355.30585 639.09064 355.19647 639.46564Q355.00897 640.02814 355.00897 640.6844L355.00897 643.95L353.9621 643.95ZM357.55585 642.09064L358.5871 641.9344Q358.68085 642.5594 359.07147 642.8875Q359.47772 643.21564 360.2121 643.21564Q360.93085 643.21564 361.2746 642.9344Q361.63397 642.6375 361.63397 642.23126Q361.63397 641.8719 361.32147 641.66876Q361.10272 641.52814 360.24335 641.3094Q359.0871 641.0125 358.63397 640.8094Q358.19647 640.59064 357.9621 640.21564Q357.72772 639.84064 357.72772 639.3719Q357.72772 638.96564 357.91522 638.60626Q358.10272 638.2469 358.43085 638.0125Q358.68085 637.84064 359.10272 637.71564Q359.5246 637.59064 360.0246 637.59064Q360.74335 637.59064 361.29022 637.8094Q361.85272 638.0125 362.11835 638.3719Q362.38397 638.73126 362.47772 639.325L361.44647 639.46564Q361.38397 638.9969 361.04022 638.73126Q360.7121 638.45 360.0871 638.45Q359.36835 638.45 359.05585 638.7Q358.74335 638.9344 358.74335 639.2625Q358.74335 639.46564 358.86835 639.6219Q359.00897 639.79376 359.2746 639.90314Q359.43085 639.96564 360.2121 640.16876Q361.3371 640.48126 361.7746 640.66876Q362.2121 640.85626 362.4621 641.21564Q362.7121 641.575 362.7121 642.1219Q362.7121 642.65314 362.3996 643.1219Q362.10272 643.575 361.5246 643.84064Q360.94647 644.09064 360.2121 644.09064Q358.99335 644.09064 358.35272 643.59064Q357.72772 643.075 357.55585 642.09064ZM369.22772 641.95L370.32147 642.075Q370.07147 643.02814 369.36835 643.5594Q368.66522 644.09064 367.5871 644.09064Q366.22772 644.09064 365.41522 643.2469Q364.61835 642.40314 364.61835 640.8875Q364.61835 639.325 365.43085 638.46564Q366.24335 637.59064 367.5246 637.59064Q368.7746 637.59064 369.55585 638.4344Q370.35272 639.27814 370.35272 640.825Q370.35272 640.91876 370.35272 641.10626L365.7121 641.10626Q365.7746 642.1375 366.29022 642.6844Q366.80585 643.21564 367.5871 643.21564Q368.16522 643.21564 368.57147 642.91876Q368.99335 642.60626 369.22772 641.95ZM365.7746 640.2469L369.24335 640.2469Q369.18085 639.45 368.85272 639.0594Q368.3371 638.45 367.54022 638.45Q366.80585 638.45 366.30585 638.9344Q365.82147 639.41876 365.7746 640.2469Z" fill-rule="nonzero"/><path fill="#000000" d="M767.741 643.95L765.4598 635.35626L766.63165 635.35626L767.94415 640.9969Q768.1473 641.8719 768.3035 642.7469Q768.63165 641.3719 768.69415 641.15314L770.31915 635.35626L771.69415 635.35626L772.9285 639.7Q773.38165 641.325 773.6004 642.7469Q773.75665 641.9344 774.0223 640.8719L775.366 635.35626L776.50665 635.35626L774.1629 643.95L773.0535 643.95L771.25665 637.40314Q771.0223 636.59064 770.9754 636.40314Q770.8504 636.98126 770.7254 637.40314L768.9129 643.95L767.741 643.95ZM777.1004 643.95L777.1004 637.73126L778.0535 637.73126L778.0535 638.66876Q778.4129 638.0125 778.7098 637.8094Q779.0223 637.59064 779.3973 637.59064Q779.9285 637.59064 780.4754 637.91876L780.116 638.90314Q779.7254 638.66876 779.3504 638.66876Q778.991 638.66876 778.7098 638.8875Q778.44415 639.09064 778.3348 639.46564Q778.1473 640.02814 778.1473 640.6844L778.1473 643.95L777.1004 643.95ZM781.116 636.575L781.116 635.35626L782.1785 635.35626L782.1785 636.575L781.116 636.575ZM781.116 643.95L781.116 637.73126L782.1785 637.73126L782.1785 643.95L781.116 643.95ZM786.4129 643.0125L786.56915 643.9344Q786.116 644.02814 785.7723 644.02814Q785.19415 644.02814 784.88165 643.85626Q784.56915 643.66876 784.4285 643.3719Q784.3035 643.075 784.3035 642.1219L784.3035 638.54376L783.5379 638.54376L783.5379 637.73126L784.3035 637.73126L784.3035 636.1844L785.3504 635.5594L785.3504 637.73126L786.4129 637.73126L786.4129 638.54376L785.3504 638.54376L785.3504 642.1844Q785.3504 642.6375 785.3973 642.7625Q785.4598 642.8875 785.5848 642.96564Q785.7098 643.04376 785.94415 643.04376Q786.13165 643.04376 786.4129 643.0125ZM791.366 641.95L792.4598 642.075Q792.2098 643.02814 791.50665 643.5594Q790.8035 644.09064 789.7254 644.09064Q788.366 644.09064 787.5535 643.2469Q786.75665 642.40314 786.75665 640.8875Q786.75665 639.325 787.56915 638.46564Q788.38165 637.59064 789.6629 637.59064Q790.9129 637.59064 791.69415 638.4344Q792.491 639.27814 792.491 640.825Q792.491 640.91876 792.491 641.10626L787.8504 641.10626Q787.9129 642.1375 788.4285 642.6844Q788.94415 643.21564 789.7254 643.21564Q790.3035 643.21564 790.7098 642.91876Q791.13165 642.60626 791.366 641.95ZM787.9129 640.2469L791.38165 640.2469Q791.31915 639.45 790.991 639.0594Q790.4754 638.45 789.6785 638.45Q788.94415 638.45 788.44415 638.9344Q787.9598 639.41876 787.9129 640.2469Z" fill-rule="nonzero"/><path fill="#4285f4" d="M399.5 82.75C399.5 82.197716 399.94772 81.75 400.5 81.75L410.5 81.75C411.05228 81.75 411.5 82.197716 411.5 82.75L411.5 92.75C411.5 93.302284 411.05228 93.75 410.5 93.75L400.5 93.75C399.94772 93.75 399.5 93.302284 399.5 92.75Z" fill-rule="nonzero"/><path fill="#1a1a1a" d="M419.84375 89.3125L420.875 89.171875Q420.90625 90.15625 421.23438 90.515625Q421.5625 90.875 422.15625 90.875Q422.57812 90.875 422.89062 90.6875Q423.20312 90.484375 423.3125 90.15625Q423.4375 89.8125 423.4375 89.078125L423.4375 83.15625L424.5625 83.15625L424.5625 89.015625Q424.5625 90.09375 424.29688 90.6875Q424.04688 91.28125 423.48438 91.59375Q422.92188 91.890625 422.15625 91.890625Q421.03125 91.890625 420.42188 91.25Q419.82812 90.59375 419.84375 89.3125ZM425.875 89.890625L426.90625 89.734375Q427.0 90.359375 427.39062 90.6875Q427.79688 91.015625 428.53125 91.015625Q429.25 91.015625 429.59375 90.734375Q429.95312 90.4375 429.95312 90.03125Q429.95312 89.671875 429.64062 89.46875Q429.42188 89.328125 428.5625 89.109375Q427.40625 88.8125 426.95312 88.609375Q426.51562 88.390625 426.28125 88.015625Q426.04688 87.640625 426.04688 87.171875Q426.04688 86.765625 426.23438 86.40625Q426.42188 86.046875 426.75 85.8125Q427.0 85.640625 427.42188 85.515625Q427.84375 85.390625 428.34375 85.390625Q429.0625 85.390625 429.60938 85.609375Q430.17188 85.8125 430.4375 86.171875Q430.70312 86.53125 430.79688 87.125L429.76562 87.265625Q429.70312 86.796875 429.35938 86.53125Q429.03125 86.25 428.40625 86.25Q427.6875 86.25 427.375 86.5Q427.0625 86.734375 427.0625 87.0625Q427.0625 87.265625 427.1875 87.421875Q427.32812 87.59375 427.59375 87.703125Q427.75 87.765625 428.53125 87.96875Q429.65625 88.28125 430.09375 88.46875Q430.53125 88.65625 430.78125 89.015625Q431.03125 89.375 431.03125 89.921875Q431.03125 90.453125 430.71875 90.921875Q430.42188 91.375 429.84375 91.640625Q429.26562 91.890625 428.53125 91.890625Q427.3125 91.890625 426.67188 91.390625Q426.04688 90.875 425.875 89.890625ZM432.90625 88.640625Q432.90625 86.90625 433.85938 86.078125Q434.65625 85.390625 435.8125 85.390625Q437.09375 85.390625 437.90625 86.234375Q438.73438 87.0625 438.73438 88.546875Q438.73438 89.75 438.375 90.4375Q438.01562 91.125 437.3125 91.515625Q436.625 91.890625 435.8125 91.890625Q434.51562 91.890625 433.70312 91.0625Q432.90625 90.21875 432.90625 88.640625ZM433.98438 88.640625Q433.98438 89.828125 434.5 90.421875Q435.03125 91.015625 435.8125 91.015625Q436.60938 91.015625 437.125 90.421875Q437.64062 89.828125 437.64062 88.609375Q437.64062 87.453125 437.10938 86.859375Q436.59375 86.265625 435.8125 86.265625Q435.03125 86.265625 434.5 86.859375Q433.98438 87.4375 433.98438 88.640625ZM440.29688 91.75L440.29688 85.53125L441.23438 85.53125L441.23438 86.40625Q441.92188 85.390625 443.21875 85.390625Q443.78125 85.390625 444.25 85.59375Q444.73438 85.796875 444.96875 86.125Q445.20312 86.453125 445.29688 86.890625Q445.34375 87.1875 445.34375 87.921875L445.34375 91.75L444.29688 91.75L444.29688 87.96875Q444.29688 87.3125 444.17188 87.0Q444.04688 86.6875 443.73438 86.5Q443.42188 86.296875 443.0 86.296875Q442.32812 86.296875 441.82812 86.734375Q441.34375 87.15625 441.34375 88.34375L441.34375 91.75L440.29688 91.75ZM447.29688 84.375L447.29688 83.15625L448.35938 83.15625L448.35938 84.375L447.29688 84.375ZM447.29688 91.75L447.29688 85.53125L448.35938 85.53125L448.35938 91.75L447.29688 91.75ZM449.875 89.890625L450.90625 89.734375Q451.0 90.359375 451.39062 90.6875Q451.79688 91.015625 452.53125 91.015625Q453.25 91.015625 453.59375 90.734375Q453.95312 90.4375 453.95312 90.03125Q453.95312 89.671875 453.64062 89.46875Q453.42188 89.328125 452.5625 89.109375Q451.40625 88.8125 450.95312 88.609375Q450.51562 88.390625 450.28125 88.015625Q450.04688 87.640625 450.04688 87.171875Q450.04688 86.765625 450.23438 86.40625Q450.42188 86.046875 450.75 85.8125Q451.0 85.640625 451.42188 85.515625Q451.84375 85.390625 452.34375 85.390625Q453.0625 85.390625 453.60938 85.609375Q454.17188 85.8125 454.4375 86.171875Q454.70312 86.53125 454.79688 87.125L453.76562 87.265625Q453.70312 86.796875 453.35938 86.53125Q453.03125 86.25 452.40625 86.25Q451.6875 86.25 451.375 86.5Q451.0625 86.734375 451.0625 87.0625Q451.0625 87.265625 451.1875 87.421875Q451.32812 87.59375 451.59375 87.703125Q451.75 87.765625 452.53125 87.96875Q453.65625 88.28125 454.09375 88.46875Q454.53125 88.65625 454.78125 89.015625Q455.03125 89.375 455.03125 89.921875Q455.03125 90.453125 454.71875 90.921875Q454.42188 91.375 453.84375 91.640625Q453.26562 91.890625 452.53125 91.890625Q451.3125 91.890625 450.67188 91.390625Q450.04688 90.875 449.875 89.890625ZM459.59375 90.8125L459.75 91.734375Q459.29688 91.828125 458.95312 91.828125Q458.375 91.828125 458.0625 91.65625Q457.75 91.46875 457.60938 91.171875Q457.48438 90.875 457.48438 89.921875L457.48438 86.34375L456.71875 86.34375L456.71875 85.53125L457.48438 85.53125L457.48438 83.984375L458.53125 83.359375L458.53125 85.53125L459.59375 85.53125L459.59375 86.34375L458.53125 86.34375L458.53125 89.984375Q458.53125 90.4375 458.57812 90.5625Q458.64062 90.6875 458.76562 90.765625Q458.89062 90.84375 459.125 90.84375Q459.3125 90.84375 459.59375 90.8125ZM464.35938 90.984375Q463.76562 91.484375 463.21875 91.6875Q462.6875 91.890625 462.0625 91.890625Q461.03125 91.890625 460.48438 91.390625Q459.9375 90.890625 459.9375 90.109375Q459.9375 89.65625 460.14062 89.28125Q460.34375 88.890625 460.6875 88.671875Q461.03125 88.4375 461.45312 88.328125Q461.75 88.234375 462.39062 88.15625Q463.65625 88.015625 464.26562 87.796875Q464.26562 87.578125 464.26562 87.53125Q464.26562 86.875 463.96875 86.609375Q463.5625 86.265625 462.76562 86.265625Q462.03125 86.265625 461.67188 86.53125Q461.3125 86.78125 461.14062 87.4375L460.10938 87.296875Q460.25 86.640625 460.57812 86.234375Q460.90625 85.828125 461.51562 85.609375Q462.125 85.390625 462.92188 85.390625Q463.71875 85.390625 464.21875 85.578125Q464.71875 85.765625 464.95312 86.046875Q465.1875 86.328125 465.28125 86.765625Q465.32812 87.03125 465.32812 87.734375L465.32812 89.140625Q465.32812 90.609375 465.39062 91.0Q465.46875 91.390625 465.67188 91.75L464.5625 91.75Q464.40625 91.421875 464.35938 90.984375ZM464.26562 88.625Q463.6875 88.859375 462.54688 89.03125Q461.89062 89.125 461.625 89.25Q461.35938 89.359375 461.20312 89.578125Q461.0625 89.796875 461.0625 90.078125Q461.0625 90.5 461.375 90.78125Q461.70312 91.0625 462.3125 91.0625Q462.92188 91.0625 463.39062 90.796875Q463.875 90.53125 464.09375 90.0625Q464.26562 89.703125 464.26562 89.015625L464.26562 88.625Z" fill-rule="nonzero"/><path fill="#ea4335" d="M482.5 82.75C482.5 82.197716 482.94772 81.75 483.5 81.75L493.5 81.75C494.05228 81.75 494.5 82.197716 494.5 82.75L494.5 92.75C494.5 93.302284 494.05228 93.75 493.5 93.75L483.5 93.75C482.94772 93.75 482.5 93.302284 482.5 92.75Z" fill-rule="nonzero"/><path fill="#1a1a1a" d="M509.5625 88.734375L510.6875 89.03125Q510.32812 90.421875 509.40625 91.15625Q508.48438 91.890625 507.14062 91.890625Q505.75 91.890625 504.875 91.328125Q504.0 90.765625 503.54688 89.703125Q503.09375 88.625 503.09375 87.390625Q503.09375 86.046875 503.60938 85.046875Q504.125 84.046875 505.0625 83.53125Q506.01562 83.015625 507.15625 83.015625Q508.4375 83.015625 509.3125 83.671875Q510.20312 84.328125 510.54688 85.515625L509.42188 85.78125Q509.125 84.84375 508.54688 84.421875Q507.98438 83.984375 507.125 83.984375Q506.14062 83.984375 505.46875 84.46875Q504.8125 84.9375 504.53125 85.734375Q504.26562 86.53125 504.26562 87.390625Q504.26562 88.484375 504.57812 89.296875Q504.90625 90.109375 505.57812 90.515625Q506.25 90.921875 507.04688 90.921875Q508.0 90.921875 508.65625 90.375Q509.32812 89.828125 509.5625 88.734375ZM512.2969 91.75L512.2969 83.15625L513.34375 83.15625L513.34375 86.234375Q514.0781 85.390625 515.2031 85.390625Q515.90625 85.390625 516.40625 85.671875Q516.9219 85.9375 517.1406 86.421875Q517.3594 86.890625 517.3594 87.8125L517.3594 91.75L516.3125 91.75L516.3125 87.8125Q516.3125 87.015625 515.96875 86.65625Q515.625 86.296875 515.0 86.296875Q514.53125 86.296875 514.1094 86.546875Q513.7031 86.78125 513.5156 87.203125Q513.34375 87.609375 513.34375 88.34375L513.34375 91.75L512.2969 91.75ZM523.5469 89.75L524.6406 89.875Q524.3906 90.828125 523.6875 91.359375Q522.9844 91.890625 521.90625 91.890625Q520.5469 91.890625 519.7344 91.046875Q518.9375 90.203125 518.9375 88.6875Q518.9375 87.125 519.75 86.265625Q520.5625 85.390625 521.84375 85.390625Q523.09375 85.390625 523.875 86.234375Q524.6719 87.078125 524.6719 88.625Q524.6719 88.71875 524.6719 88.90625L520.03125 88.90625Q520.09375 89.9375 520.6094 90.484375Q521.125 91.015625 521.90625 91.015625Q522.4844 91.015625 522.8906 90.71875Q523.3125 90.40625 523.5469 89.75ZM520.09375 88.046875L523.5625 88.046875Q523.5 87.25 523.1719 86.859375Q522.65625 86.25 521.8594 86.25Q521.125 86.25 520.625 86.734375Q520.1406 87.21875 520.09375 88.046875ZM525.875 89.890625L526.90625 89.734375Q527.0 90.359375 527.3906 90.6875Q527.7969 91.015625 528.53125 91.015625Q529.25 91.015625 529.59375 90.734375Q529.9531 90.4375 529.9531 90.03125Q529.9531 89.671875 529.6406 89.46875Q529.4219 89.328125 528.5625 89.109375Q527.40625 88.8125 526.9531 88.609375Q526.5156 88.390625 526.28125 88.015625Q526.0469 87.640625 526.0469 87.171875Q526.0469 86.765625 526.2344 86.40625Q526.4219 86.046875 526.75 85.8125Q527.0 85.640625 527.4219 85.515625Q527.84375 85.390625 528.34375 85.390625Q529.0625 85.390625 529.6094 85.609375Q530.1719 85.8125 530.4375 86.171875Q530.7031 86.53125 530.7969 87.125L529.7656 87.265625Q529.7031 86.796875 529.3594 86.53125Q529.03125 86.25 528.40625 86.25Q527.6875 86.25 527.375 86.5Q527.0625 86.734375 527.0625 87.0625Q527.0625 87.265625 527.1875 87.421875Q527.3281 87.59375 527.59375 87.703125Q527.75 87.765625 528.53125 87.96875Q529.65625 88.28125 530.09375 88.46875Q530.53125 88.65625 530.78125 89.015625Q531.03125 89.375 531.03125 89.921875Q531.03125 90.453125 530.71875 90.921875Q530.4219 91.375 529.84375 91.640625Q529.2656 91.890625 528.53125 91.890625Q527.3125 91.890625 526.6719 91.390625Q526.0469 90.875 525.875 89.890625ZM533.2969 84.375L533.2969 83.15625L534.3594 83.15625L534.3594 84.375L533.2969 84.375ZM533.2969 91.75L533.2969 85.53125L534.3594 85.53125L534.3594 91.75L533.2969 91.75ZM536.28125 91.75L536.28125 85.53125L537.2344 85.53125L537.2344 86.46875Q537.59375 85.8125 537.8906 85.609375Q538.2031 85.390625 538.5781 85.390625Q539.1094 85.390625 539.65625 85.71875L539.2969 86.703125Q538.90625 86.46875 538.53125 86.46875Q538.1719 86.46875 537.8906 86.6875Q537.625 86.890625 537.5156 87.265625Q537.3281 87.828125 537.3281 88.484375L537.3281 91.75L536.28125 91.75ZM544.5469 89.75L545.6406 89.875Q545.3906 90.828125 544.6875 91.359375Q543.9844 91.890625 542.90625 91.890625Q541.5469 91.890625 540.7344 91.046875Q539.9375 90.203125 539.9375 88.6875Q539.9375 87.125 540.75 86.265625Q541.5625 85.390625 542.84375 85.390625Q544.09375 85.390625 544.875 86.234375Q545.6719 87.078125 545.6719 88.625Q545.6719 88.71875 545.6719 88.90625L541.03125 88.90625Q541.09375 89.9375 541.6094 90.484375Q542.125 91.015625 542.90625 91.015625Q543.4844 91.015625 543.8906 90.71875Q544.3125 90.40625 544.5469 89.75ZM541.09375 88.046875L544.5625 88.046875Q544.5 87.25 544.1719 86.859375Q543.65625 86.25 542.8594 86.25Q542.125 86.25 541.625 86.734375Q541.1406 87.21875 541.09375 88.046875Z" fill-rule="nonzero"/><path fill="#fbbc04" d="M562.5 82.75C562.5 82.197716 562.9477 81.75 563.5 81.75L573.5 81.75C574.0523 81.75 574.5 82.197716 574.5 82.75L574.5 92.75C574.5 93.302284 574.0523 93.75 573.5 93.75L563.5 93.75C562.9477 93.75 562.5 93.302284 562.5 92.75Z" fill-rule="nonzero"/><path fill="#1a1a1a" d="M582.84375 89.3125L583.875 89.171875Q583.90625 90.15625 584.2344 90.515625Q584.5625 90.875 585.15625 90.875Q585.5781 90.875 585.8906 90.6875Q586.2031 90.484375 586.3125 90.15625Q586.4375 89.8125 586.4375 89.078125L586.4375 83.15625L587.5625 83.15625L587.5625 89.015625Q587.5625 90.09375 587.2969 90.6875Q587.0469 91.28125 586.4844 91.59375Q585.9219 91.890625 585.15625 91.890625Q584.03125 91.890625 583.4219 91.25Q582.8281 90.59375 582.84375 89.3125ZM588.875 89.890625L589.90625 89.734375Q590.0 90.359375 590.3906 90.6875Q590.7969 91.015625 591.53125 91.015625Q592.25 91.015625 592.59375 90.734375Q592.9531 90.4375 592.9531 90.03125Q592.9531 89.671875 592.6406 89.46875Q592.4219 89.328125 591.5625 89.109375Q590.40625 88.8125 589.9531 88.609375Q589.5156 88.390625 589.28125 88.015625Q589.0469 87.640625 589.0469 87.171875Q589.0469 86.765625 589.2344 86.40625Q589.4219 86.046875 589.75 85.8125Q590.0 85.640625 590.4219 85.515625Q590.84375 85.390625 591.34375 85.390625Q592.0625 85.390625 592.6094 85.609375Q593.1719 85.8125 593.4375 86.171875Q593.7031 86.53125 593.7969 87.125L592.7656 87.265625Q592.7031 86.796875 592.3594 86.53125Q592.03125 86.25 591.40625 86.25Q590.6875 86.25 590.375 86.5Q590.0625 86.734375 590.0625 87.0625Q590.0625 87.265625 590.1875 87.421875Q590.3281 87.59375 590.59375 87.703125Q590.75 87.765625 591.53125 87.96875Q592.65625 88.28125 593.09375 88.46875Q593.53125 88.65625 593.78125 89.015625Q594.03125 89.375 594.03125 89.921875Q594.03125 90.453125 593.71875 90.921875Q593.4219 91.375 592.84375 91.640625Q592.2656 91.890625 591.53125 91.890625Q590.3125 91.890625 589.6719 91.390625Q589.0469 90.875 588.875 89.890625ZM600.3594 90.984375Q599.7656 91.484375 599.21875 91.6875Q598.6875 91.890625 598.0625 91.890625Q597.03125 91.890625 596.4844 91.390625Q595.9375 90.890625 595.9375 90.109375Q595.9375 89.65625 596.1406 89.28125Q596.34375 88.890625 596.6875 88.671875Q597.03125 88.4375 597.4531 88.328125Q597.75 88.234375 598.3906 88.15625Q599.65625 88.015625 600.2656 87.796875Q600.2656 87.578125 600.2656 87.53125Q600.2656 86.875 599.96875 86.609375Q599.5625 86.265625 598.7656 86.265625Q598.03125 86.265625 597.6719 86.53125Q597.3125 86.78125 597.1406 87.4375L596.1094 87.296875Q596.25 86.640625 596.5781 86.234375Q596.90625 85.828125 597.5156 85.609375Q598.125 85.390625 598.9219 85.390625Q599.71875 85.390625 600.21875 85.578125Q600.71875 85.765625 600.9531 86.046875Q601.1875 86.328125 601.28125 86.765625Q601.3281 87.03125 601.3281 87.734375L601.3281 89.140625Q601.3281 90.609375 601.3906 91.0Q601.46875 91.390625 601.6719 91.75L600.5625 91.75Q600.40625 91.421875 600.3594 90.984375ZM600.2656 88.625Q599.6875 88.859375 598.5469 89.03125Q597.8906 89.125 597.625 89.25Q597.3594 89.359375 597.2031 89.578125Q597.0625 89.796875 597.0625 90.078125Q597.0625 90.5 597.375 90.78125Q597.7031 91.0625 598.3125 91.0625Q598.9219 91.0625 599.3906 90.796875Q599.875 90.53125 600.09375 90.0625Q600.2656 89.703125 600.2656 89.015625L600.2656 88.625ZM603.2969 91.75L603.2969 85.53125L604.2344 85.53125L604.2344 86.40625Q604.53125 85.9375 605.0156 85.671875Q605.5 85.390625 606.125 85.390625Q606.8125 85.390625 607.25 85.671875Q607.7031 85.953125 607.875 86.46875Q608.625 85.390625 609.7969 85.390625Q610.7344 85.390625 611.21875 85.90625Q611.71875 86.40625 611.71875 87.484375L611.71875 91.75L610.6719 91.75L610.6719 87.828125Q610.6719 87.203125 610.5625 86.921875Q610.46875 86.640625 610.2031 86.46875Q609.9375 86.296875 609.5625 86.296875Q608.90625 86.296875 608.46875 86.734375Q608.0469 87.171875 608.0469 88.140625L608.0469 91.75L606.9844 91.75L606.9844 87.703125Q606.9844 87.0 606.71875 86.65625Q606.46875 86.296875 605.8906 86.296875Q605.4375 86.296875 605.0625 86.53125Q604.6875 86.765625 604.5156 87.21875Q604.34375 87.671875 604.34375 88.515625L604.34375 91.75L603.2969 91.75Z" fill-rule="nonzero"/><path fill="#34a853" d="M629.5 82.75C629.5 82.197716 629.9477 81.75 630.5 81.75L640.5 81.75C641.0523 81.75 641.5 82.197716 641.5 82.75L641.5 92.75C641.5 93.302284 641.0523 93.75 640.5 93.75L630.5 93.75C629.9477 93.75 629.5 93.302284 629.5 92.75Z" fill-rule="nonzero"/><path fill="#1a1a1a" d="M654.3281 91.75L654.3281 90.96875Q653.7344 91.890625 652.59375 91.890625Q651.84375 91.890625 651.21875 91.484375Q650.59375 91.0625 650.25 90.328125Q649.90625 89.59375 649.90625 88.640625Q649.90625 87.71875 650.21875 86.953125Q650.53125 86.1875 651.15625 85.796875Q651.78125 85.390625 652.5469 85.390625Q653.1094 85.390625 653.5469 85.625Q653.9844 85.859375 654.2656 86.234375L654.2656 83.15625L655.3125 83.15625L655.3125 91.75L654.3281 91.75ZM651.0 88.640625Q651.0 89.84375 651.5 90.4375Q652.0 91.015625 652.6875 91.015625Q653.375 91.015625 653.8594 90.453125Q654.34375 89.890625 654.34375 88.734375Q654.34375 87.453125 653.84375 86.859375Q653.3594 86.265625 652.6406 86.265625Q651.9375 86.265625 651.46875 86.84375Q651.0 87.40625 651.0 88.640625ZM661.3594 90.984375Q660.7656 91.484375 660.21875 91.6875Q659.6875 91.890625 659.0625 91.890625Q658.03125 91.890625 657.4844 91.390625Q656.9375 90.890625 656.9375 90.109375Q656.9375 89.65625 657.1406 89.28125Q657.34375 88.890625 657.6875 88.671875Q658.03125 88.4375 658.4531 88.328125Q658.75 88.234375 659.3906 88.15625Q660.65625 88.015625 661.2656 87.796875Q661.2656 87.578125 661.2656 87.53125Q661.2656 86.875 660.96875 86.609375Q660.5625 86.265625 659.7656 86.265625Q659.03125 86.265625 658.6719 86.53125Q658.3125 86.78125 658.1406 87.4375L657.1094 87.296875Q657.25 86.640625 657.5781 86.234375Q657.90625 85.828125 658.5156 85.609375Q659.125 85.390625 659.9219 85.390625Q660.71875 85.390625 661.21875 85.578125Q661.71875 85.765625 661.9531 86.046875Q662.1875 86.328125 662.28125 86.765625Q662.3281 87.03125 662.3281 87.734375L662.3281 89.140625Q662.3281 90.609375 662.3906 91.0Q662.46875 91.390625 662.6719 91.75L661.5625 91.75Q661.40625 91.421875 661.3594 90.984375ZM661.2656 88.625Q660.6875 88.859375 659.5469 89.03125Q658.8906 89.125 658.625 89.25Q658.3594 89.359375 658.2031 89.578125Q658.0625 89.796875 658.0625 90.078125Q658.0625 90.5 658.375 90.78125Q658.7031 91.0625 659.3125 91.0625Q659.9219 91.0625 660.3906 90.796875Q660.875 90.53125 661.09375 90.0625Q661.2656 89.703125 661.2656 89.015625L661.2656 88.625ZM666.59375 90.8125L666.75 91.734375Q666.2969 91.828125 665.9531 91.828125Q665.375 91.828125 665.0625 91.65625Q664.75 91.46875 664.6094 91.171875Q664.4844 90.875 664.4844 89.921875L664.4844 86.34375L663.71875 86.34375L663.71875 85.53125L664.4844 85.53125L664.4844 83.984375L665.53125 83.359375L665.53125 85.53125L666.59375 85.53125L666.59375 86.34375L665.53125 86.34375L665.53125 89.984375Q665.53125 90.4375 665.5781 90.5625Q665.6406 90.6875 665.7656 90.765625Q665.8906 90.84375 666.125 90.84375Q666.3125 90.84375 666.59375 90.8125ZM671.3594 90.984375Q670.7656 91.484375 670.21875 91.6875Q669.6875 91.890625 669.0625 91.890625Q668.03125 91.890625 667.4844 91.390625Q666.9375 90.890625 666.9375 90.109375Q666.9375 89.65625 667.1406 89.28125Q667.34375 88.890625 667.6875 88.671875Q668.03125 88.4375 668.4531 88.328125Q668.75 88.234375 669.3906 88.15625Q670.65625 88.015625 671.2656 87.796875Q671.2656 87.578125 671.2656 87.53125Q671.2656 86.875 670.96875 86.609375Q670.5625 86.265625 669.7656 86.265625Q669.03125 86.265625 668.6719 86.53125Q668.3125 86.78125 668.1406 87.4375L667.1094 87.296875Q667.25 86.640625 667.5781 86.234375Q667.90625 85.828125 668.5156 85.609375Q669.125 85.390625 669.9219 85.390625Q670.71875 85.390625 671.21875 85.578125Q671.71875 85.765625 671.9531 86.046875Q672.1875 86.328125 672.28125 86.765625Q672.3281 87.03125 672.3281 87.734375L672.3281 89.140625Q672.3281 90.609375 672.3906 91.0Q672.46875 91.390625 672.6719 91.75L671.5625 91.75Q671.40625 91.421875 671.3594 90.984375ZM671.2656 88.625Q670.6875 88.859375 669.5469 89.03125Q668.8906 89.125 668.625 89.25Q668.3594 89.359375 668.2031 89.578125Q668.0625 89.796875 668.0625 90.078125Q668.0625 90.5 668.375 90.78125Q668.7031 91.0625 669.3125 91.0625Q669.9219 91.0625 670.3906 90.796875Q670.875 90.53125 671.09375 90.0625Q671.2656 89.703125 671.2656 89.015625L671.2656 88.625ZM674.59375 91.75L674.59375 90.546875L675.7969 90.546875L675.7969 91.75L674.59375 91.75ZM677.28125 84.390625L677.28125 83.15625L678.34375 83.15625L678.34375 84.390625L677.28125 84.390625ZM675.9531 94.171875L676.1406 93.265625Q676.46875 93.34375 676.6406 93.34375Q676.96875 93.34375 677.125 93.125Q677.28125 92.921875 677.28125 92.0625L677.28125 85.53125L678.34375 85.53125L678.34375 92.09375Q678.34375 93.234375 678.0469 93.6875Q677.65625 94.28125 676.78125 94.28125Q676.34375 94.28125 675.9531 94.171875ZM679.875 89.890625L680.90625 89.734375Q681.0 90.359375 681.3906 90.6875Q681.7969 91.015625 682.53125 91.015625Q683.25 91.015625 683.59375 90.734375Q683.9531 90.4375 683.9531 90.03125Q683.9531 89.671875 683.6406 89.46875Q683.4219 89.328125 682.5625 89.109375Q681.40625 88.8125 680.9531 88.609375Q680.5156 88.390625 680.28125 88.015625Q680.0469 87.640625 680.0469 87.171875Q680.0469 86.765625 680.2344 86.40625Q680.4219 86.046875 680.75 85.8125Q681.0 85.640625 681.4219 85.515625Q681.84375 85.390625 682.34375 85.390625Q683.0625 85.390625 683.6094 85.609375Q684.1719 85.8125 684.4375 86.171875Q684.7031 86.53125 684.7969 87.125L683.7656 87.265625Q683.7031 86.796875 683.3594 86.53125Q683.03125 86.25 682.40625 86.25Q681.6875 86.25 681.375 86.5Q681.0625 86.734375 681.0625 87.0625Q681.0625 87.265625 681.1875 87.421875Q681.3281 87.59375 681.59375 87.703125Q681.75 87.765625 682.53125 87.96875Q683.65625 88.28125 684.09375 88.46875Q684.53125 88.65625 684.78125 89.015625Q685.03125 89.375 685.03125 89.921875Q685.03125 90.453125 684.71875 90.921875Q684.4219 91.375 683.84375 91.640625Q683.2656 91.890625 682.53125 91.890625Q681.3125 91.890625 680.6719 91.390625Q680.0469 90.875 679.875 89.890625ZM686.90625 88.640625Q686.90625 86.90625 687.8594 86.078125Q688.65625 85.390625 689.8125 85.390625Q691.09375 85.390625 691.90625 86.234375Q692.7344 87.0625 692.7344 88.546875Q692.7344 89.75 692.375 90.4375Q692.0156 91.125 691.3125 91.515625Q690.625 91.890625 689.8125 91.890625Q688.5156 91.890625 687.7031 91.0625Q686.90625 90.21875 686.90625 88.640625ZM687.9844 88.640625Q687.9844 89.828125 688.5 90.421875Q689.03125 91.015625 689.8125 91.015625Q690.6094 91.015625 691.125 90.421875Q691.6406 89.828125 691.6406 88.609375Q691.6406 87.453125 691.1094 86.859375Q690.59375 86.265625 689.8125 86.265625Q689.03125 86.265625 688.5 86.859375Q687.9844 87.4375 687.9844 88.640625ZM694.2969 91.75L694.2969 85.53125L695.2344 85.53125L695.2344 86.40625Q695.9219 85.390625 697.21875 85.390625Q697.78125 85.390625 698.25 85.59375Q698.7344 85.796875 698.96875 86.125Q699.2031 86.453125 699.2969 86.890625Q699.34375 87.1875 699.34375 87.921875L699.34375 91.75L698.2969 91.75L698.2969 87.96875Q698.2969 87.3125 698.1719 87.0Q698.0469 86.6875 697.7344 86.5Q697.4219 86.296875 697.0 86.296875Q696.3281 86.296875 695.8281 86.734375Q695.34375 87.15625 695.34375 88.34375L695.34375 91.75L694.2969 91.75Z" fill-rule="nonzero"/><path fill="#757575" d="M41.503124 53.05L39.7375 53.05L39.7375 41.846874Q39.1125 42.45625 38.08125 43.065624Q37.05 43.659374 36.221874 43.971874L36.221874 42.26875Q37.70625 41.58125 38.8 40.596874Q39.909374 39.596874 40.3625 38.675L41.503124 38.675L41.503124 53.05ZM45.878124 45.9875Q45.878124 43.45625 46.39375 41.909374Q46.925 40.346874 47.95625 39.51875Q48.9875 38.675 50.55 38.675Q51.70625 38.675 52.565624 39.14375Q53.440624 39.596874 54.003124 40.471874Q54.565624 41.346874 54.89375 42.6125Q55.221874 43.8625 55.221874 45.9875Q55.221874 48.503124 54.690624 50.05Q54.175 51.596874 53.14375 52.45625Q52.128124 53.3 50.55 53.3Q48.471874 53.3 47.3 51.815624Q45.878124 50.01875 45.878124 45.9875ZM47.690624 45.9875Q47.690624 49.51875 48.503124 50.690624Q49.33125 51.846874 50.55 51.846874Q51.753124 51.846874 52.58125 50.675Q53.409374 49.503124 53.409374 45.9875Q53.409374 42.45625 52.58125 41.3Q51.753124 40.128124 50.534374 40.128124Q49.315624 40.128124 48.596874 41.159374Q47.690624 42.45625 47.690624 45.9875ZM56.878124 45.9875Q56.878124 43.45625 57.39375 41.909374Q57.925 40.346874 58.95625 39.51875Q59.9875 38.675 61.55 38.675Q62.70625 38.675 63.565624 39.14375Q64.44063 39.596874 65.00313 40.471874Q65.56563 41.346874 65.89375 42.6125Q66.22188 43.8625 66.22188 45.9875Q66.22188 48.503124 65.69063 50.05Q65.175 51.596874 64.14375 52.45625Q63.128124 53.3 61.55 53.3Q59.471874 53.3 58.3 51.815624Q56.878124 50.01875 56.878124 45.9875ZM58.690624 45.9875Q58.690624 49.51875 59.503124 50.690624Q60.33125 51.846874 61.55 51.846874Q62.753124 51.846874 63.58125 50.675Q64.40938 49.503124 64.40938 45.9875Q64.40938 42.45625 63.58125 41.3Q62.753124 40.128124 61.534374 40.128124Q60.315624 40.128124 59.596874 41.159374Q58.690624 42.45625 58.690624 45.9875ZM68.53438 53.05L68.53438 38.7375L71.39375 38.7375L74.76875 48.8625Q75.2375 50.284374 75.45625 50.9875Q75.70625 50.20625 76.22188 48.690624L79.64375 38.7375L82.19063 38.7375L82.19063 53.05L80.37813 53.05L80.37813 41.065624L76.20625 53.05L74.50313 53.05L70.3625 40.8625L70.3625 53.05L68.53438 53.05ZM86.9875 53.05L85.3625 53.05L85.3625 38.7375L87.1125 38.7375L87.1125 43.846874Q88.2375 42.440624 89.95625 42.440624Q90.90938 42.440624 91.76875 42.83125Q92.62813 43.221874 93.175 43.925Q93.72188 44.6125 94.03438 45.596874Q94.34688 46.58125 94.34688 47.70625Q94.34688 50.378124 93.03438 51.83125Q91.72188 53.284374 89.87813 53.284374Q88.03438 53.284374 86.9875 51.753124L86.9875 53.05ZM86.97188 47.784374Q86.97188 49.64375 87.47188 50.4875Q88.31563 51.83125 89.72188 51.83125Q90.87813 51.83125 91.70625 50.83125Q92.55 49.83125 92.55 47.846874Q92.55 45.815624 91.7375 44.8625Q90.94063 43.89375 89.8 43.89375Q88.64375 43.89375 87.8 44.89375Q86.97188 45.89375 86.97188 47.784374ZM102.78438 53.05L102.78438 44.05L101.2375 44.05L101.2375 42.675L102.78438 42.675L102.78438 41.58125Q102.78438 40.534374 102.97188 40.01875Q103.22188 39.33125 103.8625 38.909374Q104.50313 38.4875 105.65938 38.4875Q106.40938 38.4875 107.3 38.659374L107.03438 40.190624Q106.4875 40.096874 106.00313 40.096874Q105.20625 40.096874 104.8625 40.440624Q104.53438 40.784374 104.53438 41.721874L104.53438 42.675L106.56563 42.675L106.56563 44.05L104.53438 44.05L104.53438 53.05L102.78438 53.05ZM108.37813 40.753124L108.37813 38.7375L110.14375 38.7375L110.14375 40.753124L108.37813 40.753124ZM108.37813 53.05L108.37813 42.675L110.14375 42.675L110.14375 53.05L108.37813 53.05ZM112.33125 53.05L112.33125 38.7375L114.08125 38.7375L114.08125 53.05L112.33125 53.05ZM123.47188 49.70625L125.28438 49.940624Q124.8625 51.51875 123.69063 52.409374Q122.53438 53.284374 120.72188 53.284374Q118.45625 53.284374 117.1125 51.89375Q115.78438 50.4875 115.78438 47.95625Q115.78438 45.33125 117.12813 43.89375Q118.47188 42.440624 120.62813 42.440624Q122.70625 42.440624 124.01875 43.8625Q125.34688 45.26875 125.34688 47.846874Q125.34688 48.003124 125.33125 48.315624L117.59688 48.315624Q117.69063 50.01875 118.56563 50.925Q119.44063 51.83125 120.7375 51.83125Q121.70625 51.83125 122.37813 51.33125Q123.06563 50.815624 123.47188 49.70625ZM117.69063 46.8625L123.4875 46.8625Q123.37813 45.565624 122.83125 44.909374Q121.9875 43.89375 120.64375 43.89375Q119.44063 43.89375 118.6125 44.70625Q117.78438 45.503124 117.69063 46.8625ZM133.34688 53.05L133.34688 42.675L134.925 42.675L134.925 44.253124Q135.53438 43.14375 136.05 42.8Q136.56563 42.440624 137.175 42.440624Q138.06563 42.440624 138.9875 43.003124L138.37813 44.64375Q137.7375 44.253124 137.09688 44.253124Q136.51875 44.253124 136.05 44.6125Q135.59688 44.95625 135.39375 45.565624Q135.1125 46.503124 135.1125 47.6125L135.1125 53.05L133.34688 53.05ZM147.47188 49.70625L149.28438 49.940624Q148.8625 51.51875 147.69063 52.409374Q146.53438 53.284374 144.72188 53.284374Q142.45625 53.284374 141.1125 51.89375Q139.78438 50.4875 139.78438 47.95625Q139.78438 45.33125 141.12813 43.89375Q142.47188 42.440624 144.62813 42.440624Q146.70625 42.440624 148.01875 43.8625Q149.34688 45.26875 149.34688 47.846874Q149.34688 48.003124 149.33125 48.315624L141.59688 48.315624Q141.69063 50.01875 142.56563 50.925Q143.44063 51.83125 144.7375 51.83125Q145.70625 51.83125 146.37813 51.33125Q147.06563 50.815624 147.47188 49.70625ZM141.69063 46.8625L147.4875 46.8625Q147.37813 45.565624 146.83125 44.909374Q145.9875 43.89375 144.64375 43.89375Q143.44063 43.89375 142.6125 44.70625Q141.78438 45.503124 141.69063 46.8625ZM158.14375 51.76875Q157.15938 52.596874 156.25313 52.940624Q155.34688 53.284374 154.31563 53.284374Q152.6125 53.284374 151.69063 52.45625Q150.76875 51.6125 150.76875 50.315624Q150.76875 49.55 151.1125 48.925Q151.47188 48.3 152.03438 47.925Q152.59688 47.534374 153.3 47.33125Q153.81563 47.20625 154.8625 47.065624Q156.9875 46.815624 157.9875 46.471874Q158.00313 46.1125 158.00313 46.003124Q158.00313 44.940624 157.50313 44.4875Q156.83125 43.89375 155.50313 43.89375Q154.25313 43.89375 153.65938 44.33125Q153.08125 44.76875 152.8 45.878124L151.08125 45.64375Q151.31563 44.534374 151.84688 43.8625Q152.37813 43.175 153.39375 42.815624Q154.40938 42.440624 155.75313 42.440624Q157.08125 42.440624 157.90938 42.753124Q158.7375 43.065624 159.12813 43.55Q159.51875 44.01875 159.675 44.7375Q159.76875 45.190624 159.76875 46.3625L159.76875 48.70625Q159.76875 51.159374 159.87813 51.815624Q159.9875 52.45625 160.33125 53.05L158.4875 53.05Q158.22188 52.503124 158.14375 51.76875ZM157.9875 47.846874Q157.03438 48.2375 155.1125 48.503124Q154.03438 48.659374 153.58125 48.8625Q153.14375 49.05 152.89375 49.425Q152.64375 49.8 152.64375 50.26875Q152.64375 50.971874 153.175 51.440624Q153.70625 51.909374 154.7375 51.909374Q155.75313 51.909374 156.53438 51.471874Q157.33125 51.01875 157.70625 50.253124Q157.9875 49.64375 157.9875 48.4875L157.9875 47.846874ZM169.09688 53.05L169.09688 51.7375Q168.1125 53.284374 166.19063 53.284374Q164.95625 53.284374 163.90938 52.596874Q162.87813 51.909374 162.3 50.690624Q161.7375 49.471874 161.7375 47.878124Q161.7375 46.315624 162.25313 45.05Q162.76875 43.784374 163.8 43.1125Q164.84688 42.440624 166.1125 42.440624Q167.05 42.440624 167.78438 42.846874Q168.51875 43.2375 168.9875 43.8625L168.9875 38.7375L170.72188 38.7375L170.72188 53.05L169.09688 53.05ZM163.53438 47.878124Q163.53438 49.8625 164.37813 50.846874Q165.22188 51.83125 166.3625 51.83125Q167.51875 51.83125 168.31563 50.89375Q169.12813 49.95625 169.12813 48.01875Q169.12813 45.89375 168.3 44.89375Q167.4875 43.89375 166.28438 43.89375Q165.1125 43.89375 164.31563 44.8625Q163.53438 45.815624 163.53438 47.878124ZM186.14375 51.76875Q185.15938 52.596874 184.25313 52.940624Q183.34688 53.284374 182.31563 53.284374Q180.6125 53.284374 179.69063 52.45625Q178.76875 51.6125 178.76875 50.315624Q178.76875 49.55 179.1125 48.925Q179.47188 48.3 180.03438 47.925Q180.59688 47.534374 181.3 47.33125Q181.81563 47.20625 182.8625 47.065624Q184.9875 46.815624 185.9875 46.471874Q186.00313 46.1125 186.00313 46.003124Q186.00313 44.940624 185.50313 44.4875Q184.83125 43.89375 183.50313 43.89375Q182.25313 43.89375 181.65938 44.33125Q181.08125 44.76875 180.8 45.878124L179.08125 45.64375Q179.31563 44.534374 179.84688 43.8625Q180.37813 43.175 181.39375 42.815624Q182.40938 42.440624 183.75313 42.440624Q185.08125 42.440624 185.90938 42.753124Q186.7375 43.065624 187.12813 43.55Q187.51875 44.01875 187.675 44.7375Q187.76875 45.190624 187.76875 46.3625L187.76875 48.70625Q187.76875 51.159374 187.87813 51.815624Q187.9875 52.45625 188.33125 53.05L186.4875 53.05Q186.22188 52.503124 186.14375 51.76875ZM185.9875 47.846874Q185.03438 48.2375 183.1125 48.503124Q182.03438 48.659374 181.58125 48.8625Q181.14375 49.05 180.89375 49.425Q180.64375 49.8 180.64375 50.26875Q180.64375 50.971874 181.175 51.440624Q181.70625 51.909374 182.7375 51.909374Q183.75313 51.909374 184.53438 51.471874Q185.33125 51.01875 185.70625 50.253124Q185.9875 49.64375 185.9875 48.4875L185.9875 47.846874ZM190.3625 53.05L190.3625 42.675L191.95625 42.675L191.95625 44.159374Q193.09688 42.440624 195.25313 42.440624Q196.19063 42.440624 196.97188 42.784374Q197.76875 43.1125 198.15938 43.659374Q198.55 44.20625 198.70625 44.95625Q198.8 45.45625 198.8 46.675L198.8 53.05L197.03438 53.05L197.03438 46.7375Q197.03438 45.659374 196.83125 45.128124Q196.62813 44.596874 196.09688 44.284374Q195.58125 43.971874 194.87813 43.971874Q193.75313 43.971874 192.94063 44.690624Q192.12813 45.39375 192.12813 47.378124L192.12813 53.05L190.3625 53.05ZM207.09688 53.05L207.09688 51.7375Q206.1125 53.284374 204.19063 53.284374Q202.95625 53.284374 201.90938 52.596874Q200.87813 51.909374 200.3 50.690624Q199.7375 49.471874 199.7375 47.878124Q199.7375 46.315624 200.25313 45.05Q200.76875 43.784374 201.8 43.1125Q202.84688 42.440624 204.1125 42.440624Q205.05 42.440624 205.78438 42.846874Q206.51875 43.2375 206.9875 43.8625L206.9875 38.7375L208.72188 38.7375L208.72188 53.05L207.09688 53.05ZM201.53438 47.878124Q201.53438 49.8625 202.37813 50.846874Q203.22188 51.83125 204.3625 51.83125Q205.51875 51.83125 206.31563 50.89375Q207.12813 49.95625 207.12813 48.01875Q207.12813 45.89375 206.3 44.89375Q205.4875 43.89375 204.28438 43.89375Q203.1125 43.89375 202.31563 44.8625Q201.53438 45.815624 201.53438 47.878124ZM219.28438 53.05L216.1125 42.675L217.925 42.675L219.58125 48.659374L220.19063 50.89375Q220.2375 50.721874 220.72188 48.753124L222.37813 42.675L224.19063 42.675L225.7375 48.690624L226.25313 50.675L226.84688 48.675L228.62813 42.675L230.33125 42.675L227.09688 53.05L225.26875 53.05L223.6125 46.83125L223.22188 45.065624L221.1125 53.05L219.28438 53.05ZM232.34688 53.05L232.34688 42.675L233.925 42.675L233.925 44.253124Q234.53438 43.14375 235.05 42.8Q235.56563 42.440624 236.175 42.440624Q237.06563 42.440624 237.9875 43.003124L237.37813 44.64375Q236.7375 44.253124 236.09688 44.253124Q235.51875 44.253124 235.05 44.6125Q234.59688 44.95625 234.39375 45.565624Q234.1125 46.503124 234.1125 47.6125L234.1125 53.05L232.34688 53.05ZM239.37813 40.753124L239.37813 38.7375L241.14375 38.7375L241.14375 40.753124L239.37813 40.753124ZM239.37813 53.05L239.37813 42.675L241.14375 42.675L241.14375 53.05L239.37813 53.05ZM247.20625 51.471874L247.45625 53.034374Q246.72188 53.190624 246.12813 53.190624Q245.175 53.190624 244.64375 52.89375Q244.12813 52.58125 243.90938 52.096874Q243.69063 51.596874 243.69063 50.01875L243.69063 44.05L242.40938 44.05L242.40938 42.675L243.69063 42.675L243.69063 40.1125L245.44063 39.05L245.44063 42.675L247.20625 42.675L247.20625 44.05L245.44063 44.05L245.44063 50.1125Q245.44063 50.8625 245.53438 51.08125Q245.62813 51.284374 245.83125 51.425Q246.05 51.55 246.44063 51.55Q246.72188 51.55 247.20625 51.471874ZM256.47186 49.70625L258.28436 49.940624Q257.8625 51.51875 256.6906 52.409374Q255.53438 53.284374 253.72188 53.284374Q251.45625 53.284374 250.1125 51.89375Q248.78438 50.4875 248.78438 47.95625Q248.78438 45.33125 250.12813 43.89375Q251.47188 42.440624 253.62813 42.440624Q255.70625 42.440624 257.01874 43.8625Q258.34686 45.26875 258.34686 47.846874Q258.34686 48.003124 258.33124 48.315624L250.59688 48.315624Q250.69063 50.01875 251.56563 50.925Q252.44063 51.83125 253.7375 51.83125Q254.70625 51.83125 255.37813 51.33125Q256.0656 50.815624 256.47186 49.70625ZM250.69063 46.8625L256.4875 46.8625Q256.3781 45.565624 255.83125 44.909374Q254.9875 43.89375 253.64375 43.89375Q252.44063 43.89375 251.6125 44.70625Q250.78438 45.503124 250.69063 46.8625ZM266.3781 40.753124L266.3781 38.7375L268.14374 38.7375L268.14374 40.753124L266.3781 40.753124ZM266.3781 53.05L266.3781 42.675L268.14374 42.675L268.14374 53.05L266.3781 53.05ZM270.3625 53.05L270.3625 42.675L271.95624 42.675L271.95624 44.159374Q273.09686 42.440624 275.2531 42.440624Q276.1906 42.440624 276.97186 42.784374Q277.76874 43.1125 278.15936 43.659374Q278.55 44.20625 278.70624 44.95625Q278.8 45.45625 278.8 46.675L278.8 53.05L277.03436 53.05L277.03436 46.7375Q277.03436 45.659374 276.83124 45.128124Q276.6281 44.596874 276.09686 44.284374Q275.58124 43.971874 274.8781 43.971874Q273.7531 43.971874 272.9406 44.690624Q272.1281 45.39375 272.1281 47.378124L272.1281 53.05L270.3625 53.05ZM286.3625 53.05L286.3625 42.675L287.9406 42.675L287.9406 44.128124Q288.425 43.378124 289.2375 42.909374Q290.05 42.440624 291.08124 42.440624Q292.2375 42.440624 292.97186 42.925Q293.70624 43.39375 294.01874 44.253124Q295.2531 42.440624 297.22186 42.440624Q298.76874 42.440624 299.59686 43.3Q300.425 44.159374 300.425 45.925L300.425 53.05L298.675 53.05L298.675 46.51875Q298.675 45.45625 298.5031 45.003124Q298.33124 44.534374 297.8781 44.253124Q297.4406 43.971874 296.83124 43.971874Q295.7375 43.971874 295.0031 44.70625Q294.28436 45.425 294.28436 47.01875L294.28436 53.05L292.53436 53.05L292.53436 46.315624Q292.53436 45.14375 292.09686 44.565624Q291.675 43.971874 290.6906 43.971874Q289.95624 43.971874 289.3156 44.3625Q288.6906 44.753124 288.40936 45.503124Q288.1281 46.253124 288.1281 47.675L288.1281 53.05L286.3625 53.05ZM301.65936 49.95625L303.40936 49.675Q303.55 50.721874 304.22186 51.284374Q304.89374 51.83125 306.09686 51.83125Q307.3 51.83125 307.8781 51.346874Q308.47186 50.846874 308.47186 50.190624Q308.47186 49.596874 307.95624 49.253124Q307.59686 49.01875 306.15936 48.659374Q304.22186 48.159374 303.47186 47.815624Q302.7375 47.45625 302.34686 46.83125Q301.95624 46.190624 301.95624 45.425Q301.95624 44.7375 302.26874 44.14375Q302.59686 43.55 303.14374 43.159374Q303.55 42.8625 304.2531 42.659374Q304.97186 42.440624 305.78436 42.440624Q307.0031 42.440624 307.925 42.8Q308.84686 43.14375 309.28436 43.753124Q309.72186 44.346874 309.89374 45.346874L308.175 45.58125Q308.05 44.784374 307.4875 44.346874Q306.925 43.89375 305.90936 43.89375Q304.6906 43.89375 304.175 44.3Q303.65936 44.690624 303.65936 45.221874Q303.65936 45.565624 303.8781 45.846874Q304.08124 46.128124 304.55 46.315624Q304.8156 46.409374 306.09686 46.753124Q307.97186 47.253124 308.70624 47.58125Q309.4406 47.89375 309.8625 48.503124Q310.28436 49.096874 310.28436 50.003124Q310.28436 50.878124 309.76874 51.659374Q309.2531 52.440624 308.28436 52.8625Q307.3156 53.284374 306.09686 53.284374Q304.08124 53.284374 303.01874 52.440624Q301.95624 51.596874 301.65936 49.95625ZM312.83124 53.05L312.83124 51.05L314.83124 51.05L314.83124 53.05Q314.83124 54.159374 314.4406 54.83125Q314.05 55.51875 313.20624 55.878124L312.70624 55.128124Q313.26874 54.89375 313.53436 54.409374Q313.8 53.940624 313.83124 53.05L312.83124 53.05ZM324.33124 53.05L324.33124 38.7375L326.08124 38.7375L326.08124 53.05L324.33124 53.05ZM335.47186 49.70625L337.28436 49.940624Q336.8625 51.51875 335.6906 52.409374Q334.53436 53.284374 332.72186 53.284374Q330.45624 53.284374 329.1125 51.89375Q327.78436 50.4875 327.78436 47.95625Q327.78436 45.33125 329.1281 43.89375Q330.47186 42.440624 332.6281 42.440624Q334.70624 42.440624 336.01874 43.8625Q337.34686 45.26875 337.34686 47.846874Q337.34686 48.003124 337.33124 48.315624L329.59686 48.315624Q329.6906 50.01875 330.5656 50.925Q331.4406 51.83125 332.7375 51.83125Q333.70624 51.83125 334.3781 51.33125Q335.0656 50.815624 335.47186 49.70625ZM329.6906 46.8625L335.4875 46.8625Q335.3781 45.565624 334.83124 44.909374Q333.9875 43.89375 332.64374 43.89375Q331.4406 43.89375 330.6125 44.70625Q329.78436 45.503124 329.6906 46.8625ZM338.65936 49.95625L340.40936 49.675Q340.55 50.721874 341.22186 51.284374Q341.89374 51.83125 343.09686 51.83125Q344.3 51.83125 344.8781 51.346874Q345.47186 50.846874 345.47186 50.190624Q345.47186 49.596874 344.95624 49.253124Q344.59686 49.01875 343.15936 48.659374Q341.22186 48.159374 340.47186 47.815624Q339.7375 47.45625 339.34686 46.83125Q338.95624 46.190624 338.95624 45.425Q338.95624 44.7375 339.26874 44.14375Q339.59686 43.55 340.14374 43.159374Q340.55 42.8625 341.2531 42.659374Q341.97186 42.440624 342.78436 42.440624Q344.0031 42.440624 344.925 42.8Q345.84686 43.14375 346.28436 43.753124Q346.72186 44.346874 346.89374 45.346874L345.175 45.58125Q345.05 44.784374 344.4875 44.346874Q343.925 43.89375 342.90936 43.89375Q341.6906 43.89375 341.175 44.3Q340.65936 44.690624 340.65936 45.221874Q340.65936 45.565624 340.8781 45.846874Q341.08124 46.128124 341.55 46.315624Q341.8156 46.409374 343.09686 46.753124Q344.97186 47.253124 345.70624 47.58125Q346.4406 47.89375 346.8625 48.503124Q347.28436 49.096874 347.28436 50.003124Q347.28436 50.878124 346.76874 51.659374Q346.2531 52.440624 345.28436 52.8625Q344.3156 53.284374 343.09686 53.284374Q341.08124 53.284374 340.01874 52.440624Q338.95624 51.596874 338.65936 49.95625ZM348.65936 49.95625L350.40936 49.675Q350.55 50.721874 351.22186 51.284374Q351.89374 51.83125 353.09686 51.83125Q354.3 51.83125 354.8781 51.346874Q355.47186 50.846874 355.47186 50.190624Q355.47186 49.596874 354.95624 49.253124Q354.59686 49.01875 353.15936 48.659374Q351.22186 48.159374 350.47186 47.815624Q349.7375 47.45625 349.34686 46.83125Q348.95624 46.190624 348.95624 45.425Q348.95624 44.7375 349.26874 44.14375Q349.59686 43.55 350.14374 43.159374Q350.55 42.8625 351.2531 42.659374Q351.97186 42.440624 352.78436 42.440624Q354.0031 42.440624 354.925 42.8Q355.84686 43.14375 356.28436 43.753124Q356.72186 44.346874 356.89374 45.346874L355.175 45.58125Q355.05 44.784374 354.4875 44.346874Q353.925 43.89375 352.90936 43.89375Q351.6906 43.89375 351.175 44.3Q350.65936 44.690624 350.65936 45.221874Q350.65936 45.565624 350.8781 45.846874Q351.08124 46.128124 351.55 46.315624Q351.8156 46.409374 353.09686 46.753124Q354.97186 47.253124 355.70624 47.58125Q356.4406 47.89375 356.8625 48.503124Q357.28436 49.096874 357.28436 50.003124Q357.28436 50.878124 356.76874 51.659374Q356.2531 52.440624 355.28436 52.8625Q354.3156 53.284374 353.09686 53.284374Q351.08124 53.284374 350.01874 52.440624Q348.95624 51.596874 348.65936 49.95625ZM365.3781 40.753124L365.3781 38.7375L367.14374 38.7375L367.14374 40.753124L365.3781 40.753124ZM365.3781 53.05L365.3781 42.675L367.14374 42.675L367.14374 53.05L365.3781 53.05ZM368.65936 49.95625L370.40936 49.675Q370.55 50.721874 371.22186 51.284374Q371.89374 51.83125 373.09686 51.83125Q374.3 51.83125 374.8781 51.346874Q375.47186 50.846874 375.47186 50.190624Q375.47186 49.596874 374.95624 49.253124Q374.59686 49.01875 373.15936 48.659374Q371.22186 48.159374 370.47186 47.815624Q369.7375 47.45625 369.34686 46.83125Q368.95624 46.190624 368.95624 45.425Q368.95624 44.7375 369.26874 44.14375Q369.59686 43.55 370.14374 43.159374Q370.55 42.8625 371.2531 42.659374Q371.97186 42.440624 372.78436 42.440624Q374.0031 42.440624 374.925 42.8Q375.84686 43.14375 376.28436 43.753124Q376.72186 44.346874 376.89374 45.346874L375.175 45.58125Q375.05 44.784374 374.4875 44.346874Q373.925 43.89375 372.90936 43.89375Q371.6906 43.89375 371.175 44.3Q370.65936 44.690624 370.65936 45.221874Q370.65936 45.565624 370.8781 45.846874Q371.08124 46.128124 371.55 46.315624Q371.8156 46.409374 373.09686 46.753124Q374.97186 47.253124 375.70624 47.58125Q376.4406 47.89375 376.8625 48.503124Q377.28436 49.096874 377.28436 50.003124Q377.28436 50.878124 376.76874 51.659374Q376.2531 52.440624 375.28436 52.8625Q374.3156 53.284374 373.09686 53.284374Q371.08124 53.284374 370.01874 52.440624Q368.95624 51.596874 368.65936 49.95625ZM386.9875 53.05L385.3625 53.05L385.3625 38.7375L387.1125 38.7375L387.1125 43.846874Q388.2375 42.440624 389.95624 42.440624Q390.90936 42.440624 391.76874 42.83125Q392.6281 43.221874 393.175 43.925Q393.72186 44.6125 394.03436 45.596874Q394.34686 46.58125 394.34686 47.70625Q394.34686 50.378124 393.03436 51.83125Q391.72186 53.284374 389.8781 53.284374Q388.03436 53.284374 386.9875 51.753124L386.9875 53.05ZM386.97186 47.784374Q386.97186 49.64375 387.47186 50.4875Q388.3156 51.83125 389.72186 51.83125Q390.8781 51.83125 391.70624 50.83125Q392.55 49.83125 392.55 47.846874Q392.55 45.815624 391.7375 44.8625Q390.9406 43.89375 389.8 43.89375Q388.64374 43.89375 387.8 44.89375Q386.97186 45.89375 386.97186 47.784374ZM403.47186 49.70625L405.28436 49.940624Q404.8625 51.51875 403.6906 52.409374Q402.53436 53.284374 400.72186 53.284374Q398.45624 53.284374 397.1125 51.89375Q395.78436 50.4875 395.78436 47.95625Q395.78436 45.33125 397.1281 43.89375Q398.47186 42.440624 400.6281 42.440624Q402.70624 42.440624 404.01874 43.8625Q405.34686 45.26875 405.34686 47.846874Q405.34686 48.003124 405.33124 48.315624L397.59686 48.315624Q397.6906 50.01875 398.5656 50.925Q399.4406 51.83125 400.7375 51.83125Q401.70624 51.83125 402.3781 51.33125Q403.0656 50.815624 403.47186 49.70625ZM397.6906 46.8625L403.4875 46.8625Q403.3781 45.565624 402.83124 44.909374Q401.9875 43.89375 400.64374 43.89375Q399.4406 43.89375 398.6125 44.70625Q397.78436 45.503124 397.6906 46.8625ZM411.20624 51.471874L411.45624 53.034374Q410.72186 53.190624 410.1281 53.190624Q409.175 53.190624 408.64374 52.89375Q408.1281 52.58125 407.90936 52.096874Q407.6906 51.596874 407.6906 50.01875L407.6906 44.05L406.40936 44.05L406.40936 42.675L407.6906 42.675L407.6906 40.1125L409.4406 39.05L409.4406 42.675L411.20624 42.675L411.20624 44.05L409.4406 44.05L409.4406 50.1125Q409.4406 50.8625 409.53436 51.08125Q409.6281 51.284374 409.83124 51.425Q410.05 51.55 410.4406 51.55Q410.72186 51.55 411.20624 51.471874ZM417.20624 51.471874L417.45624 53.034374Q416.72186 53.190624 416.1281 53.190624Q415.175 53.190624 414.64374 52.89375Q414.1281 52.58125 413.90936 52.096874Q413.6906 51.596874 413.6906 50.01875L413.6906 44.05L412.40936 44.05L412.40936 42.675L413.6906 42.675L413.6906 40.1125L415.4406 39.05L415.4406 42.675L417.20624 42.675L417.20624 44.05L415.4406 44.05L415.4406 50.1125Q415.4406 50.8625 415.53436 51.08125Q415.6281 51.284374 415.83124 51.425Q416.05 51.55 416.4406 51.55Q416.72186 51.55 417.20624 51.471874ZM426.47186 49.70625L428.28436 49.940624Q427.8625 51.51875 426.6906 52.409374Q425.53436 53.284374 423.72186 53.284374Q421.45624 53.284374 420.1125 51.89375Q418.78436 50.4875 418.78436 47.95625Q418.78436 45.33125 420.1281 43.89375Q421.47186 42.440624 423.6281 42.440624Q425.70624 42.440624 427.01874 43.8625Q428.34686 45.26875 428.34686 47.846874Q428.34686 48.003124 428.33124 48.315624L420.59686 48.315624Q420.6906 50.01875 421.5656 50.925Q422.4406 51.83125 423.7375 51.83125Q424.70624 51.83125 425.3781 51.33125Q426.0656 50.815624 426.47186 49.70625ZM420.6906 46.8625L426.4875 46.8625Q426.3781 45.565624 425.83124 44.909374Q424.9875 43.89375 423.64374 43.89375Q422.4406 43.89375 421.6125 44.70625Q420.78436 45.503124 420.6906 46.8625ZM430.34686 53.05L430.34686 42.675L431.925 42.675L431.925 44.253124Q432.53436 43.14375 433.05 42.8Q433.5656 42.440624 434.175 42.440624Q435.0656 42.440624 435.9875 43.003124L435.3781 44.64375Q434.7375 44.253124 434.09686 44.253124Q433.51874 44.253124 433.05 44.6125Q432.59686 44.95625 432.39374 45.565624Q432.1125 46.503124 432.1125 47.6125L432.1125 53.05L430.34686 53.05Z" fill-rule="nonzero"/></svg>